<?xml version="1.0" encoding="utf-8"?>
<svg version="1.1" xmlns:xlink="http://www.w3.org/1999/xlink" width="12px" height="12px" viewBox="88 49.5  12 12" xmlns="http://www.w3.org/2000/svg">
  <path d="M 94 49.5  C 97.36 49.5  100 52.14  100 55.5  C 100 58.86  97.36 61.5  94 61.5  C 90.64 61.5  88 58.86  88 55.5  C 88 52.14  90.64 49.5  94 49.5  Z " fill-rule="nonzero" fill="#f0f0f0" stroke="none" />
  <path d="M 94 50  C 97.08 50  99.5 52.42  99.5 55.5  C 99.5 58.58  97.08 61  94 61  C 90.92 61  88.5 58.58  88.5 55.5  C 88.5 52.42  90.92 50  94 50  Z " stroke-width="1" stroke="#797979" fill="none" />
  <path d="M 94 58.5  C 92.32 58.5  91 57.18  91 55.5  C 91 53.82  92.32 52.5  94 52.5  C 95.68 52.5  97 53.82  97 55.5  C 97 57.18  95.68 58.5  94 58.5  " fill-rule="nonzero" fill="#797979" stroke="none" />
</svg>