<?xml version="1.0" encoding="utf-8"?>
<svg version="1.1" xmlns:xlink="http://www.w3.org/1999/xlink" width="12px" height="12px" viewBox="218 49.5  12 12" xmlns="http://www.w3.org/2000/svg">
  <path d="M 224 49.5  C 227.36 49.5  230 52.14  230 55.5  C 230 58.86  227.36 61.5  224 61.5  C 220.64 61.5  218 58.86  218 55.5  C 218 52.14  220.64 49.5  224 49.5  Z " fill-rule="nonzero" fill="#ffffff" stroke="none" />
  <path d="M 224 50  C 227.08 50  229.5 52.42  229.5 55.5  C 229.5 58.58  227.08 61  224 61  C 220.92 61  218.5 58.58  218.5 55.5  C 218.5 52.42  220.92 50  224 50  Z " stroke-width="1" stroke="#797979" fill="none" />
  <path d="M 224 58.5  C 222.32 58.5  221 57.18  221 55.5  C 221 53.82  222.32 52.5  224 52.5  C 225.68 52.5  227 53.82  227 55.5  C 227 57.18  225.68 58.5  224 58.5  " fill-rule="nonzero" fill="#797979" stroke="none" />
</svg>