<?xml version="1.0" encoding="utf-8"?>
<svg version="1.1" xmlns:xlink="http://www.w3.org/1999/xlink" width="10px" height="15px" xmlns="http://www.w3.org/2000/svg">
  <g transform="matrix(1 0 0 1 -112 -16 )">
    <path d="M 2.626953125 7.06168831168831  L 9.560546875 0.146103896103896  C 9.68424479166667 0.022727272727272  9.78841145833333 -0.0194805194805203  9.873046875 0.0194805194805187  C 9.95768229166667 0.0584415584415576  10 0.162337662337661  10 0.33116883116883  L 10 14.6688311688312  C 10 14.8376623376623  9.95768229166667 14.9415584415584  9.873046875 14.9805194805195  C 9.78841145833333 15.0194805194805  9.68424479166667 14.9772727272727  9.560546875 14.8538961038961  L 2.626953125 7.93831168831169  C 2.568359375 7.87987012987013  2.52604166666667 7.81818181818182  2.5 7.75324675324675  L 2.5 14.3571428571429  C 2.5 14.525974025974  2.43815104166667 14.6720779220779  2.314453125 14.7954545454545  C 2.19075520833333 14.9188311688312  2.04427083333333 14.9805194805195  1.875 14.9805194805195  L 0.625 14.9805194805195  C 0.455729166666667 14.9805194805195  0.309244791666667 14.9188311688312  0.185546875 14.7954545454545  C 0.0618489583333333 14.6720779220779  0 14.525974025974  0 14.3571428571429  L 0 0.642857142857142  C 0 0.474025974025973  0.0618489583333333 0.327922077922077  0.185546875 0.204545454545455  C 0.309244791666667 0.0811688311688297  0.455729166666667 0.0194805194805187  0.625 0.0194805194805187  L 1.875 0.0194805194805187  C 2.04427083333333 0.0194805194805187  2.19075520833333 0.0811688311688297  2.314453125 0.204545454545455  C 2.43815104166667 0.327922077922077  2.5 0.474025974025973  2.5 0.642857142857142  L 2.5 7.24675324675325  C 2.52604166666667 7.18181818181818  2.568359375 7.12012987012987  2.626953125 7.06168831168831  Z " fill-rule="nonzero" fill="#8b60f0" stroke="none" transform="matrix(1 0 0 1 112 16 )" />
  </g>
</svg>