<?xml version="1.0" encoding="utf-8"?>
<svg version="1.1" xmlns:xlink="http://www.w3.org/1999/xlink" width="10px" height="15px" xmlns="http://www.w3.org/2000/svg">
  <g transform="matrix(1 0 0 1 -260 -16 )">
    <path d="M 7.373046875 7.93831168831169  L 0.439453125 14.8538961038961  C 0.315755208333333 14.9772727272727  0.211588541666667 15.0194805194805  0.126953125 14.9805194805195  C 0.0423177083333334 14.9415584415584  0 14.8376623376623  0 14.6688311688312  L 0 0.33116883116883  C 0 0.162337662337661  0.0423177083333334 0.0584415584415576  0.126953125 0.0194805194805187  C 0.211588541666667 -0.0194805194805203  0.315755208333333 0.022727272727272  0.439453125 0.146103896103896  L 7.373046875 7.06168831168831  C 7.431640625 7.12012987012987  7.47395833333333 7.18181818181818  7.5 7.24675324675325  L 7.5 0.642857142857142  C 7.5 0.474025974025973  7.56184895833333 0.327922077922077  7.685546875 0.204545454545455  C 7.80924479166667 0.0811688311688297  7.95572916666667 0.0194805194805187  8.125 0.0194805194805187  L 9.375 0.0194805194805187  C 9.54427083333333 0.0194805194805187  9.69075520833333 0.0811688311688297  9.814453125 0.204545454545455  C 9.93815104166667 0.327922077922077  10 0.474025974025973  10 0.642857142857142  L 10 14.3571428571429  C 10 14.525974025974  9.93815104166667 14.6720779220779  9.814453125 14.7954545454545  C 9.69075520833333 14.9188311688312  9.54427083333333 14.9805194805195  9.375 14.9805194805195  L 8.125 14.9805194805195  C 7.95572916666667 14.9805194805195  7.80924479166667 14.9188311688312  7.685546875 14.7954545454545  C 7.56184895833333 14.6720779220779  7.5 14.525974025974  7.5 14.3571428571429  L 7.5 7.75324675324675  C 7.47395833333333 7.81818181818182  7.431640625 7.87987012987013  7.373046875 7.93831168831169  Z " fill-rule="nonzero" fill="#8b60f0" stroke="none" transform="matrix(1 0 0 1 260 16 )" />
  </g>
</svg>