<?xml version="1.0" encoding="utf-8"?>
<svg version="1.1" xmlns:xlink="http://www.w3.org/1999/xlink" width="10px" height="16px" xmlns="http://www.w3.org/2000/svg">
  <g transform="matrix(1 0 0 1 -137 -16 )">
    <path d="M 9.67013888888889 0.296875  C 9.8900462962963 0.494791666666664  10 0.729166666666664  10 1  L 10 15  C 10 15.2708333333333  9.8900462962963 15.5052083333333  9.67013888888889 15.703125  C 9.45023148148148 15.9010416666667  9.18981481481481 16  8.88888888888889 16  C 8.58796296296296 16  8.3275462962963 15.9010416666667  8.10763888888889 15.703125  L 0.329861111111111 8.703125  C 0.109953703703704 8.50520833333333  0 8.27083333333333  0 8  C 0 7.72916666666667  0.109953703703704 7.49479166666667  0.329861111111111 7.296875  L 8.10763888888889 0.296875  C 8.3275462962963 0.0989583333333321  8.58796296296296 0  8.88888888888889 0  C 9.18981481481481 0  9.45023148148148 0.0989583333333321  9.67013888888889 0.296875  Z " fill-rule="nonzero" fill="#8b60f0" stroke="none" transform="matrix(1 0 0 1 137 16 )" />
  </g>
</svg>