<?xml version="1.0" encoding="utf-8"?>
<svg version="1.1" xmlns:xlink="http://www.w3.org/1999/xlink" width="18px" height="18px" xmlns="http://www.w3.org/2000/svg">
  <g transform="matrix(1 0 0 1 -26 -15 )">
    <path d="M 14.77734375 10.27734375  C 14.92578125 10.12890625  15 9.953125  15 9.75  L 15 8.25  C 15 8.046875  14.92578125 7.87109375  14.77734375 7.72265625  C 14.62890625 7.57421875  14.453125 7.5  14.25 7.5  L 8.3671875 7.5  L 10.58203125 5.28515625  C 10.73046875 5.13671875  10.8046875 4.9609375  10.8046875 4.7578125  C 10.8046875 4.5546875  10.73046875 4.37890625  10.58203125 4.23046875  L 9.515625 3.1640625  C 9.375 3.0234375  9.19921875 2.953125  8.98828125 2.953125  C 8.77734375 2.953125  8.6015625 3.0234375  8.4609375 3.1640625  L 4.21875 7.40625  L 3.15234375 8.47265625  C 3.01171875 8.61328125  2.94140625 8.7890625  2.94140625 9  C 2.94140625 9.2109375  3.01171875 9.38671875  3.15234375 9.52734375  L 4.21875 10.59375  L 8.4609375 14.8359375  C 8.6015625 14.9765625  8.77734375 15.046875  8.98828125 15.046875  C 9.19921875 15.046875  9.375 14.9765625  9.515625 14.8359375  L 10.58203125 13.76953125  C 10.72265625 13.62890625  10.79296875 13.453125  10.79296875 13.2421875  C 10.79296875 13.03125  10.72265625 12.85546875  10.58203125 12.71484375  L 8.3671875 10.5  L 14.25 10.5  C 14.453125 10.5  14.62890625 10.42578125  14.77734375 10.27734375  Z M 16.79296875 4.482421875  C 17.59765625 5.861328125  18 7.3671875  18 9  C 18 10.6328125  17.59765625 12.138671875  16.79296875 13.517578125  C 15.98828125 14.896484375  14.896484375 15.98828125  13.517578125 16.79296875  C 12.138671875 17.59765625  10.6328125 18  9 18  C 7.3671875 18  5.861328125 17.59765625  4.482421875 16.79296875  C 3.103515625 15.98828125  2.01171875 14.896484375  1.20703125 13.517578125  C 0.40234375 12.138671875  0 10.6328125  0 9  C 0 7.3671875  0.40234375 5.861328125  1.20703125 4.482421875  C 2.01171875 3.103515625  3.103515625 2.01171875  4.482421875 1.20703125  C 5.861328125 0.402343749999998  7.3671875 0  9 0  C 10.6328125 0  12.138671875 0.402343749999998  13.517578125 1.20703125  C 14.896484375 2.01171875  15.98828125 3.103515625  16.79296875 4.482421875  Z " fill-rule="nonzero" fill="#8b60f0" stroke="none" transform="matrix(1 0 0 1 26 15 )" />
  </g>
</svg>