<?xml version="1.0" encoding="utf-8"?>
<svg version="1.1" xmlns:xlink="http://www.w3.org/1999/xlink" width="14px" height="14px" xmlns="http://www.w3.org/2000/svg">
  <g transform="matrix(1 0 0 1 -1020 -16 )">
    <path d="M 13.64453125 0.62890625  C 13.8815104166667 0.732204861111111  14 0.911458333333333  14 1.16666666666667  L 14 5.25  C 14 5.40798611111111  13.9422743055556 5.54470486111111  13.8268229166667 5.66015625  C 13.7113715277778 5.77560763888889  13.5746527777778 5.83333333333333  13.4166666666667 5.83333333333333  L 9.33333333333333 5.83333333333333  C 9.078125 5.83333333333333  8.89887152777778 5.71180555555556  8.79557291666667 5.46875  C 8.69227430555556 5.23177083333333  8.73480902777778 5.02213541666667  8.92317708333333 4.83984375  L 10.1809895833333 3.58203125  C 9.28168402777778 2.74956597222222  8.22135416666667 2.33333333333333  7 2.33333333333333  C 6.36805555555556 2.33333333333333  5.76497395833333 2.45638020833333  5.19075520833333 2.70247395833333  C 4.61653645833333 2.94856770833333  4.11979166666667 3.28125  3.70052083333333 3.70052083333333  C 3.28125 4.11979166666667  2.94856770833333 4.61653645833333  2.70247395833333 5.19075520833333  C 2.45638020833333 5.76497395833333  2.33333333333333 6.36805555555555  2.33333333333333 7  C 2.33333333333333 7.63194444444444  2.45638020833333 8.23502604166667  2.70247395833333 8.80924479166667  C 2.94856770833333 9.38346354166667  3.28125 9.88020833333333  3.70052083333333 10.2994791666667  C 4.11979166666667 10.71875  4.61653645833333 11.0514322916667  5.19075520833333 11.2975260416667  C 5.76497395833333 11.5436197916667  6.36805555555556 11.6666666666667  7 11.6666666666667  C 7.72309027777778 11.6666666666667  8.40668402777778 11.5086805555556  9.05078125 11.1927083333333  C 9.69487847222222 10.8767361111111  10.2387152777778 10.4301215277778  10.6822916666667 9.85286458333333  C 10.7248263888889 9.79210069444444  10.7947048611111 9.75564236111111  10.8919270833333 9.74348958333333  C 10.9830729166667 9.74348958333333  11.0590277777778 9.77083333333333  11.1197916666667 9.82552083333333  L 12.3684895833333 11.0833333333333  C 12.4231770833333 11.1319444444444  12.4520399305556 11.1942274305556  12.455078125 11.2701822916667  C 12.4581163194444 11.3461371527778  12.4353298611111 11.4144965277778  12.38671875 11.4752604166667  C 11.7243923611111 12.27734375  10.9223090277778 12.8986545138889  9.98046875 13.3391927083333  C 9.03862847222222 13.7797309027778  8.04513888888889 14  7 14  C 6.05208333333333 14  5.14670138888889 13.8146701388889  4.28385416666667 13.4440104166667  C 3.42100694444445 13.0733506944444  2.67664930555556 12.5750868055556  2.05078125 11.94921875  C 1.42491319444444 11.3233506944444  0.926649305555556 10.5789930555556  0.555989583333333 9.71614583333333  C 0.185329861111111 8.85329861111111  0 7.94791666666667  0 7  C 0 6.05208333333333  0.185329861111111 5.14670138888889  0.555989583333333 4.28385416666667  C 0.926649305555556 3.42100694444444  1.42491319444444 2.67664930555555  2.05078125 2.05078125  C 2.67664930555556 1.42491319444444  3.42100694444445 0.926649305555555  4.28385416666667 0.555989583333333  C 5.14670138888889 0.185329861111111  6.05208333333333 0  7 0  C 7.89322916666667 0  8.75759548611111 0.168619791666667  9.59309895833333 0.505859375  C 10.4286024305556 0.843098958333333  11.1714409722222 1.31857638888889  11.8216145833333 1.93229166666667  L 13.0065104166667 0.756510416666667  C 13.1827256944444 0.568142361111111  13.3953993055556 0.525607638888888  13.64453125 0.62890625  Z " fill-rule="nonzero" fill="#8b60f0" stroke="none" transform="matrix(1 0 0 1 1020 16 )" />
  </g>
</svg>